<svg width="26" height="22" viewBox="0 0 26 22" fill="none" xmlns="http://www.w3.org/2000/svg">
<path d="M8.17648 21.5631C17.9878 21.5631 23.3542 13.4345 23.3542 6.38536C23.3542 6.15448 23.3542 5.92464 23.3386 5.69584C24.3826 4.94071 25.2838 4.00572 26 2.93464C25.0265 3.36624 23.9937 3.64916 22.9362 3.77392C24.0498 3.10733 24.8833 2.05877 25.2814 0.82344C24.2343 1.44485 23.0887 1.88275 21.8941 2.11824C21.0898 1.26303 20.0261 0.696735 18.8675 0.506981C17.709 0.317228 16.5202 0.514597 15.4851 1.06855C14.4501 1.6225 13.6264 2.50214 13.1416 3.57137C12.6569 4.64059 12.538 5.83978 12.8034 6.98336C10.6826 6.87697 8.6079 6.32581 6.71391 5.36565C4.81992 4.40548 3.14899 3.05777 1.8096 1.41C1.12746 2.58433 0.918528 3.9745 1.22536 5.29746C1.53219 6.62042 2.3317 7.7767 3.46112 8.53088C2.61217 8.50601 1.7817 8.27698 1.04 7.8632V7.9308C1.04034 9.16239 1.46667 10.3559 2.24669 11.309C3.02672 12.2621 4.1124 12.9161 5.3196 13.1599C4.53427 13.3741 3.71028 13.4054 2.91096 13.2514C3.25197 14.3113 3.91563 15.2381 4.80918 15.9023C5.70272 16.5665 6.78148 16.9349 7.89464 16.9559C6.78864 17.8253 5.52209 18.468 4.16745 18.8474C2.8128 19.2268 1.39665 19.3354 0 19.167C2.43949 20.7324 5.27792 21.5628 8.17648 21.559" fill="#FAFAFA"/>
</svg>
