<svg width="76" height="25" viewBox="0 0 76 25" fill="none" xmlns="http://www.w3.org/2000/svg">
<g clip-path="url(#clip0_1_6)">
<path d="M50.1252 1.33026H47.5019V22.6035H50.1252V1.33026Z" fill="#214E41"/>
<path d="M56.8124 1.33026H54.1891V22.6035H56.8124V1.33026Z" fill="#214E41"/>
<path d="M74.4657 8.25541L73.1541 11.112C71.95 9.05613 69.8427 7.88751 67.37 7.88751C62.9405 7.88751 59.9302 11.2635 59.9302 15.4186C59.9302 19.5737 62.9405 22.9497 67.37 22.9497C69.7137 22.9497 71.7349 21.8893 72.9606 20.0282V22.6035H75.7344V8.25541H74.4657ZM67.7785 21.4132C64.6607 21.4132 62.9405 18.8596 62.9405 15.4186C62.9405 11.8911 64.6607 9.42403 67.7785 9.42403C70.6383 9.42403 72.767 11.9344 72.767 15.4186C72.767 18.9028 70.6383 21.4132 67.7785 21.4132Z" fill="#214E41"/>
<path d="M23.8493 9.40242C23.0108 10.2031 22.3657 11.1986 22.0001 12.3023L20.6455 8.2338H19.3769V22.5819H22.1507V17.1283C22.1507 15.159 22.3657 13.5142 23.1613 12.3456C23.8493 11.3501 25.032 10.7442 26.5156 10.7442C26.9887 10.7442 27.4617 10.7874 27.9348 10.874V8.12559C27.6552 8.08231 27.3757 8.06067 27.0962 8.06067C25.8921 8.08231 24.7309 8.55841 23.8493 9.40242Z" fill="#214E41"/>
<path d="M36.4712 7.88751C32.0202 7.88751 28.8594 11.1337 28.8594 15.4186C28.8594 19.7036 31.9557 22.9497 36.4497 22.9497C38.1269 22.9714 39.7825 22.4736 41.1802 21.5214C42.3413 20.6341 43.1799 19.3789 43.5669 17.9506H40.7071C40.2771 19.7685 39.159 21.4349 36.6432 21.4349C33.0953 21.4349 31.9557 18.6431 31.8912 15.6567V15.6134H43.8895C43.8895 15.4619 43.8895 15.3537 43.8895 15.2671C43.911 10.9822 40.8792 7.88751 36.4712 7.88751ZM36.4927 9.40239C39.632 9.40239 40.6211 11.9777 40.7071 14.0552H31.9772C32.2352 11.5232 33.5254 9.40239 36.4927 9.40239Z" fill="#214E41"/>
<path d="M10.1954 12.1508C13.0122 11.5665 15.1839 10.0516 15.1839 7.41138C15.1839 4.16522 12.7542 2.60706 9.01276 2.60706H0.734375V22.6251H9.89435C13.2702 22.6251 15.9365 20.8938 15.9365 17.2364C15.9365 14.2067 13.3992 12.3672 10.1954 12.1508ZM8.06666 4.05701C10.7544 4.05701 12.1521 5.4204 12.1521 7.56287C12.1521 9.70534 10.6254 11.3717 7.83013 11.3717H3.83071V4.05701H8.06666ZM8.4322 21.1319H3.83071V13.0381H7.95915C10.905 13.0381 12.7327 14.488 12.7327 17.1066C12.7327 19.4006 11.206 21.1319 8.4322 21.1319Z" fill="#214E41"/>
</g>
<defs>
<clipPath id="clip0_1_6">
<rect width="75" height="24" fill="white" transform="translate(0.734375 0.140015)"/>
</clipPath>
</defs>
</svg>
